<?xml version="1.0" encoding="UTF-8" standalone="no"?>
<!-- Created with Inkscape (http://www.inkscape.org/) -->

<svg
   version="1.1"
   id="svg1013"
   width="32"
   height="32"
   viewBox="0 0 32 32"
   xmlns="http://www.w3.org/2000/svg"
   xmlns:svg="http://www.w3.org/2000/svg">
  <defs
     id="defs1017" />
  <g
     id="layer3">
    <rect
       style="opacity:1;fill:#bd93f9;fill-opacity:0.976471;stroke:none;stroke-width:0;stroke-miterlimit:4;stroke-dasharray:none;stroke-opacity:1"
       id="rect51244"
       width="3"
       height="30.5"
       x="14.3"
       y="1.5"
       ry="0.2847226" />
    <rect
       style="fill:#bd93f9;fill-opacity:0.976471;stroke:none;stroke-width:0;stroke-miterlimit:4;stroke-dasharray:none;stroke-opacity:1"
       id="rect51244-3"
       width="3"
       height="30.5"
       x="19.799999"
       y="1.5"
       ry="0.2847226" />
  </g>
  <g
     id="layer1"
     style="display:inline">
    <path
       style="opacity:1;fill:#bd93f9;fill-opacity:0.976471;stroke:none;stroke-width:0"
       d="m 26.682499,29.616424 c -0.351268,-0.01836 -0.904428,-0.06468 -1.229244,-0.102932 -0.324816,-0.03825 -0.666355,-0.07095 -0.758974,-0.07266 -0.09262,-0.0017 -0.168456,-0.01301 -0.168526,-0.02512 -1.98e-4,-0.0329 -0.588483,-0.125437 -0.630875,-0.09924 -0.02012,0.01243 -0.04274,0.0041 -0.05028,-0.01849 -0.0075,-0.0226 -0.09815,-0.04502 -0.201376,-0.04981 -0.103222,-0.0048 -0.187801,-0.01906 -0.187952,-0.0317 -1.59e-4,-0.01264 -0.147488,-0.05423 -0.327414,-0.09241 -0.891783,-0.18926 -2.14037,-0.577088 -3.147621,-0.977693 C 16.129743,26.614938 12.624073,23.888446 9.4630677,19.966761 6.4253267,16.198002 3.7352637,11.083105 1.9875417,5.7527628 1.7994387,5.179072 1.6411408,4.6556385 1.6357683,4.5895772 L 1.626,4.4694657 4.6396307,3.2240494 c 1.657497,-0.684979 3.039797,-1.2357166 3.071778,-1.2238615 0.03198,0.011855 0.74348,0.426581 1.581108,0.921613 l 1.5229623,0.9000582 0.617469,0.7137546 c 2.106486,2.4349601 3.866527,4.1368803 5.618083,5.4325623 1.442965,1.067407 2.628359,1.72015 5.115242,2.816734 2.652348,1.169545 3.692856,1.810821 5.009379,3.087334 1.650178,1.600028 3.229611,3.854918 3.912213,5.585302 0.08388,0.21264 0.168398,0.386617 0.187813,0.386617 0.01941,0 0.02646,0.01431 0.01565,0.03179 -0.01081,0.01749 0.04133,0.232656 0.115865,0.478156 0.262782,0.865565 0.315132,1.232639 0.314645,2.206284 -4.88e-4,0.972314 -0.03703,1.228192 -0.279478,1.956945 -0.314586,0.945587 -0.811504,1.755483 -1.50196,2.447953 -0.241074,0.241777 -0.502458,0.487134 -0.580854,0.545237 l -0.142538,0.105642 -0.947921,0.01682 c -0.521356,0.0092 -1.235321,0.0018 -1.586589,-0.01657 z"
       id="path19548" />
  </g>
  <g
     id="layer2"
     style="display:inline">
    <path
       style="fill:none;stroke:none;stroke-width:1px;stroke-linecap:butt;stroke-linejoin:miter;stroke-opacity:1"
       d="m 3.6243744,1.6260014 c 0,0 3.232578,-1.10512087 4.6813538,0.9645642 1.4487758,2.069685 3.3674898,2.0562274 4.3291848,2.010214 0.961695,-0.046013 -0.718629,1.6428141 -0.96222,1.5981524 -0.243591,-0.044662 -0.387634,-0.7492691 -0.387634,-0.7492691 0,0 -2.9934964,0.2542069 -3.389792,-0.9903639 -0.3962956,-1.2445708 1.6920403,6.615253 -0.3690729,6.32976 0,0 -1.9145259,-3.8647129 -2.7522314,-3.5448312 C 3.9362572,7.5641095 2.8941912,7.476197 2.8941912,7.476197 c 0,0 -0.5471013,-0.6008799 -0.7612032,-0.6666122 0,0 0.6547301,2.9622481 0.018129,2.8112984 0,0 -0.0053,2.3745428 0.8216194,2.5056238 0,0 -1.8732659,-0.192728 -1.7701193,-2.1364299 C 1.3057633,8.0463752 0.6530311,5.4910439 0.37088924,5.5633241 0.08874739,5.6356042 1.6323164,2.3293496 1.7571627,3.051344 c 0,0 -0.2559235,-1.4867311 -0.4532896,-1.5018757 0,0 0.9505729,-1.20620295 1.077411,-0.79021697 C 2.5081223,1.1752373 3.5624552,1.8493177 3.6243744,1.6260014 Z"
       id="path19630" />
    <path
       style="opacity:1;fill:#50fa7b;fill-opacity:1;stroke:none;stroke-width:0;stroke-miterlimit:4;stroke-dasharray:none;stroke-opacity:1"
       d="M 2.9690487,11.616691 C 2.2042982,11.233203 1.658138,10.564952 1.563729,9.8972208 1.5446334,9.7621618 1.5114853,9.3304694 1.4900665,8.9379044 1.4433933,8.082473 1.3728255,7.6803456 1.0273219,6.3009775 0.64953539,4.7927251 0.63679379,4.2852257 0.96046939,3.6382363 1.1518531,3.2556828 1.4632171,2.9503054 1.8659819,2.7501342 2.0394122,2.6639406 2.1852091,2.5924932 2.189975,2.5913621 2.1947409,2.5902312 2.1010606,2.2656018 1.9817966,1.8699639 1.8625325,1.474326 1.7651243,1.1183741 1.765334,1.0789597 1.7658885,0.9746955 2.1417924,0.49061889 2.2964062,0.3950623 2.4849898,0.27851122 2.561036,0.29222541 2.7383179,0.47475677 2.9313636,0.6735186 3.3737358,0.9538973 3.709639,1.090387 l 0.2518339,0.1023293 0.4977746,-0.06309 c 0.5580175,-0.070726 1.6215663,-0.081992 2.0442431,-0.021655 0.8354875,0.1192655 1.1245831,0.2668024 1.9429984,0.9915889 0.83191,0.7367363 1.177245,1.0136064 1.705671,1.3675092 0.622563,0.4169497 1.185874,0.6707087 1.76397,0.7946294 0.309662,0.06638 0.988589,0.073385 1.269681,0.013102 0.111625,-0.023939 0.212295,-0.034185 0.223713,-0.022767 0.03133,0.031334 -0.100025,0.45458 -0.205974,0.663661 -0.168036,0.3316029 -0.585267,0.6325619 -0.875664,0.631638 C 12.283363,5.5471736 12.135345,5.4097029 11.96152,5.2070307 11.71504,4.9196449 11.655644,4.870535 11.578088,4.8900003 11.306667,4.9581223 10.827198,4.9975473 10.543707,4.9750523 9.747293,4.9118583 9.098206,4.6533437 8.528856,4.1725885 8.443306,4.1003475 8.367211,4.0473354 8.359763,4.0547831 c -0.0075,0.00745 0.01724,0.3775984 0.05487,0.8225566 0.04966,0.587336 0.06818,1.2219 0.06759,2.3158309 -7.45e-4,1.3680079 -0.0086,1.5489915 -0.08561,1.964656 C 8.349973,9.4096389 8.274006,9.7040628 8.227788,9.8121018 8.146668,10.001722 8.008026,10.186975 7.94723,10.186975 7.93104,10.186975 7.797752,9.9773098 7.6510265,9.7210518 6.9273601,8.4571696 6.3711113,7.6562005 5.8499348,7.1275835 5.3707849,6.6415931 5.2557884,6.5980917 4.8606938,6.7533686 4.4811639,6.9025283 4.2971044,6.9333748 3.7801427,6.9344565 L 3.3170179,6.935426 2.874765,6.5488089 C 2.6315258,6.3361695 2.4186241,6.1570718 2.40165,6.1508142 2.384676,6.1445542 2.420559,6.3327102 2.48139,6.568934 2.7738349,7.704578 2.7865369,8.6207649 2.515121,9.0019333 2.421804,9.1329846 2.426789,9.2024603 2.58396,9.9614548 c 0.1547433,0.7472702 0.3584605,1.2769622 0.6258246,1.6272282 0.077421,0.101428 0.125106,0.184414 0.1059663,0.184414 -0.01914,0 -0.1751557,-0.07038 -0.3467022,-0.156406 z"
       id="path43568" />
  </g>
</svg>
